<?xml version="1.0" encoding="UTF-8"?>
<svg width="377px" height="104px" viewBox="0 0 377 104" version="1.1" xmlns="http://www.w3.org/2000/svg" xmlns:xlink="http://www.w3.org/1999/xlink">
    <!-- Generator: Sketch 51.2 (57519) - http://www.bohemiancoding.com/sketch -->
    <title>Group 36</title>
    <desc>Created with Sketch.</desc>
    <defs>
        <polygon id="path-1" points="0 104 376.081 104 376.081 0.19 0 0.19"></polygon>
    </defs>
    <g id="Page-1" stroke="none" stroke-width="1" fill="none" fill-rule="evenodd">
        <g id="Group-36" transform="translate(0.000000, -1.000000)">
            <polygon id="Fill-1" fill="#333333" points="21.1482 61.8917 12.5832 77.9457 4.0842 61.8917 0.0002 61.8917 10.6952 81.7227 10.6952 93.9977 14.4722 93.9977 14.4722 81.5457 25.1892 61.8917"></polygon>
            <g id="Group-35" transform="translate(0.000000, 0.810000)">
                <path d="M31.4911,81.1327 C31.4911,84.2077 32.1061,86.5497 33.3351,88.1617 C34.5651,89.7727 36.3721,90.5747 38.7591,90.5747 C41.1451,90.5747 42.9571,89.7737 44.1941,88.1697 C45.4311,86.5667 46.0501,84.2217 46.0501,81.1317 C46.0501,78.0737 45.4311,75.7467 44.1941,74.1587 C42.9571,72.5707 41.1301,71.7757 38.7151,71.7757 C36.3281,71.7757 34.5291,72.5587 33.3121,74.1267 C32.0961,75.6957 31.4911,78.0287 31.4911,81.1327 M49.8291,81.1327 C49.8291,85.0577 48.8411,88.1197 46.8651,90.3237 C44.8881,92.5277 42.1581,93.6277 38.6741,93.6277 C36.5221,93.6277 34.6111,93.1217 32.9411,92.1117 C31.2731,91.1017 29.9841,89.6527 29.0751,87.7647 C28.1671,85.8767 27.7141,83.6657 27.7141,81.1327 C27.7141,77.2097 28.6941,74.1537 30.6571,71.9657 C32.6181,69.7767 35.3431,68.6827 38.8271,68.6827 C42.1951,68.6827 44.8701,69.8017 46.8541,72.0417 C48.8361,74.2817 49.8291,77.3117 49.8291,81.1327" id="Fill-2" fill="#333333"></path>
                <path d="M59.6454,69.12 L59.6454,84.737 C59.6454,86.699 60.0924,88.163 60.9854,89.13 C61.8784,90.098 63.2764,90.579 65.1804,90.579 C67.6984,90.579 69.5404,89.892 70.7034,88.517 C71.8674,87.141 72.4484,84.893 72.4484,81.774 L72.4484,69.12 L76.0944,69.12 L76.0944,93.19 L73.0854,93.19 L72.5584,89.96 L72.3604,89.96 C71.6144,91.147 70.5784,92.056 69.2534,92.684 C67.9294,93.313 66.4164,93.627 64.7184,93.627 C61.7904,93.627 59.5984,92.933 58.1414,91.541 C56.6834,90.151 55.9554,87.926 55.9554,84.865 L55.9554,69.12 L59.6454,69.12 Z" id="Fill-4" fill="#333333"></path>
                <path d="M100.2953,93.1898 L100.2953,77.6188 C100.2953,75.6558 99.8483,74.1938 98.9553,73.2258 C98.0613,72.2578 96.6643,71.7758 94.7603,71.7758 C92.2413,71.7758 90.3973,72.4558 89.2253,73.8188 C88.0543,75.1808 87.4683,77.4268 87.4683,80.5578 L87.4683,93.1888 L83.8223,93.1888 L83.8223,69.1198 L86.7863,69.1198 L87.3793,72.4158 L87.5553,72.4158 C88.3013,71.2308 89.3483,70.3098 90.6953,69.6598 C92.0423,69.0098 93.5433,68.6838 95.1963,68.6838 C98.0963,68.6838 100.2773,69.3818 101.7413,70.7818 C103.2053,72.1798 103.9373,74.4168 103.9373,77.4908 L103.9373,93.1928 L100.2953,93.1898 Z" id="Fill-6" fill="#333333"></path>
                <path d="M113.9106,76.828 C113.9106,78.512 114.3866,79.784 115.3386,80.649 C116.2896,81.513 117.6146,81.943 119.3136,81.943 C122.8706,81.943 124.6506,80.219 124.6506,76.761 C124.6506,73.144 122.8496,71.336 119.2476,71.336 C117.5346,71.336 116.2176,71.797 115.2946,72.719 C114.3716,73.644 113.9106,75.013 113.9106,76.828 Z M111.9336,97.23 C111.9336,98.534 112.4826,99.521 113.5806,100.196 C114.6786,100.869 116.2516,101.204 118.3026,101.204 C121.3616,101.204 123.6276,100.748 125.0996,99.835 C126.5696,98.918 127.3066,97.677 127.3066,96.112 C127.3066,94.807 126.9036,93.903 126.0986,93.4 C125.2936,92.895 123.7786,92.643 121.5536,92.643 L117.1826,92.643 C115.5286,92.643 114.2396,93.038 113.3176,93.828 C112.3956,94.617 111.9336,95.752 111.9336,97.23 Z M131.1286,69.12 L131.1286,71.429 L126.6696,71.953 C127.0796,72.467 127.4456,73.136 127.7676,73.965 C128.0896,74.793 128.2506,75.725 128.2506,76.766 C128.2506,79.124 127.4446,81.005 125.8356,82.41 C124.2236,83.814 122.0136,84.517 119.2036,84.517 C118.4856,84.517 117.8126,84.459 117.1826,84.343 C115.6306,85.163 114.8546,86.195 114.8546,87.439 C114.8546,88.099 115.1256,88.586 115.6676,88.901 C116.2086,89.217 117.1386,89.373 118.4556,89.373 L122.7166,89.373 C125.3226,89.373 127.3256,89.922 128.7236,91.02 C130.1206,92.12 130.8206,93.716 130.8206,95.809 C130.8206,98.474 129.7526,100.504 127.6156,101.903 C125.4776,103.302 122.3596,104 118.2596,104 C115.1106,104 112.6846,103.416 110.9806,102.243 C109.2746,101.074 108.4216,99.416 108.4216,97.279 C108.4216,95.814 108.8906,94.548 109.8276,93.478 C110.7646,92.409 112.0816,91.684 113.7806,91.305 C113.1656,91.029 112.6496,90.595 112.2316,90.009 C111.8146,89.425 111.6066,88.744 111.6066,87.967 C111.6066,87.09 111.8396,86.32 112.3086,85.659 C112.7766,85.001 113.5156,84.364 114.5266,83.748 C113.2826,83.236 112.2666,82.366 111.4846,81.135 C110.7016,79.907 110.3106,78.501 110.3106,76.92 C110.3106,74.284 111.1006,72.251 112.6826,70.825 C114.2636,69.399 116.5036,68.685 119.4026,68.685 C120.6616,68.685 121.7966,68.831 122.8066,69.122 L131.1286,69.122 L131.1286,69.12 Z" id="Fill-8" fill="#333333"></path>
                <mask id="mask-2" fill="white">
                    <use xlink:href="#path-1"></use>
                </mask>
                <g id="Clip-11"></g>
                <polygon id="Fill-10" fill="#333333" mask="url(#mask-2)" points="136.618 93.189 140.351 93.189 140.351 61.081 136.618 61.081"></polygon>
                <path d="M165.08,93.1898 L165.08,77.6188 C165.08,75.6558 164.633,74.1938 163.74,73.2258 C162.846,72.2578 161.449,71.7758 159.545,71.7758 C157.026,71.7758 155.182,72.4558 154.01,73.8188 C152.839,75.1808 152.251,77.4268 152.251,80.5578 L152.251,93.1888 L148.606,93.1888 L148.606,69.1198 L151.571,69.1198 L152.164,72.4158 L152.34,72.4158 C153.086,71.2308 154.133,70.3098 155.48,69.6598 C156.827,69.0088 158.329,68.6838 159.981,68.6838 C162.88,68.6838 165.062,69.3818 166.526,70.7818 C167.99,72.1798 168.722,74.4168 168.722,77.4908 L168.722,93.1928 L165.08,93.1898 Z" id="Fill-12" fill="#F06924" mask="url(#mask-2)"></path>
                <path d="M192.6855,93.1898 L192.6855,77.6188 C192.6855,75.6558 192.2385,74.1938 191.3455,73.2258 C190.4545,72.2578 189.0545,71.7758 187.1515,71.7758 C184.6325,71.7758 182.7875,72.4558 181.6165,73.8188 C180.4465,75.1808 179.8595,77.4268 179.8595,80.5578 L179.8595,93.1888 L176.2145,93.1888 L176.2145,69.1198 L179.1795,69.1198 L179.7725,72.4158 L179.9475,72.4158 C180.6945,71.2308 181.7405,70.3098 183.0875,69.6598 C184.4355,69.0098 185.9355,68.6838 187.5895,68.6838 C190.4895,68.6838 192.6705,69.3818 194.1345,70.7818 C195.5985,72.1798 196.3305,74.4168 196.3305,77.4908 L196.3305,93.1928 L192.6855,93.1898 Z" id="Fill-13" fill="#F06924" mask="url(#mask-2)"></path>
                <path d="M206.2558,81.1327 C206.2558,84.2077 206.8718,86.5497 208.1018,88.1617 C209.3318,89.7727 211.1398,90.5747 213.5268,90.5747 C215.9128,90.5747 217.7238,89.7737 218.9628,88.1697 C220.1988,86.5667 220.8198,84.2217 220.8198,81.1317 C220.8198,78.0737 220.1988,75.7467 218.9628,74.1587 C217.7258,72.5707 215.8998,71.7757 213.4828,71.7757 C211.0958,71.7757 209.2948,72.5587 208.0808,74.1267 C206.8648,75.6947 206.2558,78.0287 206.2558,81.1327 M224.5938,81.1327 C224.5938,85.0577 223.6058,88.1197 221.6308,90.3237 C219.6538,92.5277 216.9228,93.6277 213.4378,93.6277 C211.2868,93.6277 209.3768,93.1217 207.7068,92.1117 C206.0378,91.1017 204.7498,89.6527 203.8418,87.7647 C202.9328,85.8767 202.4788,83.6657 202.4788,81.1327 C202.4788,77.2097 203.4588,74.1537 205.4228,71.9657 C207.3848,69.7767 210.1078,68.6827 213.5918,68.6827 C216.9598,68.6827 219.6348,69.8017 221.6188,72.0417 C223.6018,74.2817 224.5938,77.3117 224.5938,81.1327" id="Fill-14" fill="#333333" mask="url(#mask-2)"></path>
                <path d="M236.2563,93.1898 L227.1193,69.1198 L231.0283,69.1198 L236.2133,83.3968 C237.3833,86.7358 238.0733,88.9018 238.2763,89.8958 L238.4513,89.8958 C238.6113,89.1228 239.1213,87.5138 239.9763,85.0768 C240.8343,82.6388 242.7533,77.3198 245.7403,69.1198 L249.6493,69.1198 L240.5133,93.1898 L236.2563,93.1898 Z" id="Fill-15" fill="#333333" mask="url(#mask-2)"></path>
                <path d="M260.0834,90.6195 C262.3534,90.6195 264.1354,89.9985 265.4314,88.7555 C266.7274,87.5095 267.3744,85.7675 267.3744,83.5275 L267.3744,81.3535 L263.7294,81.5085 C260.8284,81.6105 258.7374,82.0605 257.4574,82.8585 C256.1784,83.6575 255.5374,84.8985 255.5374,86.5815 C255.5374,87.8985 255.9364,88.9015 256.7344,89.5885 C257.5324,90.2765 258.6484,90.6195 260.0834,90.6195 Z M268.3184,93.1895 L267.5954,89.7625 L267.4204,89.7625 C266.2204,91.2715 265.0214,92.2935 263.8304,92.8265 C262.6354,93.3615 261.1454,93.6275 259.3594,93.6275 C256.9734,93.6275 255.1044,93.0125 253.7494,91.7835 C252.3954,90.5545 251.7184,88.8035 251.7184,86.5355 C251.7184,81.6745 255.6054,79.1265 263.3784,78.8925 L267.4654,78.7615 L267.4654,77.2685 C267.4654,75.3805 267.0574,73.9845 266.2464,73.0845 C265.4334,72.1835 264.1354,71.7345 262.3474,71.7345 C260.3394,71.7345 258.0724,72.3495 255.5404,73.5785 L254.4194,70.7885 C255.6054,70.1445 256.9044,69.6395 258.3184,69.2735 C259.7314,68.9075 261.1474,68.7265 262.5664,68.7265 C265.4364,68.7265 267.5624,69.3615 268.9474,70.6375 C270.3304,71.9115 271.0214,73.9515 271.0214,76.7655 L271.0214,93.1925 L268.3184,93.1895 Z" id="Fill-16" fill="#333333" mask="url(#mask-2)"></path>
                <path d="M286.3051,90.6195 C286.9491,90.6195 287.5711,90.5735 288.1701,90.4775 C288.7721,90.3825 289.2461,90.2845 289.5961,90.1825 L289.5961,92.9695 C289.2031,93.1605 288.6211,93.3185 287.8511,93.4415 C287.0821,93.5665 286.3901,93.6275 285.7761,93.6275 C281.1211,93.6275 278.7931,91.1755 278.7931,86.2715 L278.7931,71.9525 L275.3451,71.9525 L275.3451,70.1955 L278.7931,68.6805 L280.3311,63.5395 L282.4401,63.5395 L282.4401,69.1175 L289.4241,69.1175 L289.4241,71.9515 L282.4401,71.9515 L282.4401,86.1175 C282.4401,87.5665 282.7841,88.6775 283.4711,89.4545 C284.1591,90.2335 285.1051,90.6195 286.3051,90.6195" id="Fill-17" fill="#333333" mask="url(#mask-2)"></path>
                <path d="M294.407,93.19 L298.053,93.19 L298.053,69.12 L294.407,69.12 L294.407,93.19 Z M294.102,62.598 C294.102,61.763 294.307,61.152 294.718,60.764 C295.128,60.377 295.638,60.184 296.254,60.184 C296.838,60.184 297.344,60.382 297.77,60.775 C298.193,61.171 298.407,61.779 298.407,62.598 C298.407,63.417 298.193,64.03 297.77,64.431 C297.346,64.834 296.84,65.035 296.254,65.035 C295.638,65.035 295.128,64.834 294.718,64.431 C294.307,64.03 294.102,63.417 294.102,62.598 Z" id="Fill-18" fill="#333333" mask="url(#mask-2)"></path>
                <path d="M308.2221,81.1327 C308.2221,84.2077 308.8381,86.5497 310.0691,88.1617 C311.2961,89.7727 313.1061,90.5747 315.4931,90.5747 C317.8791,90.5747 319.6911,89.7737 320.9291,88.1697 C322.1651,86.5667 322.7851,84.2217 322.7851,81.1317 C322.7851,78.0737 322.1651,75.7467 320.9291,74.1587 C319.6921,72.5707 317.8661,71.7757 315.4491,71.7757 C313.0621,71.7757 311.2611,72.5587 310.0471,74.1267 C308.8281,75.6947 308.2221,78.0287 308.2221,81.1327 M326.5591,81.1327 C326.5591,85.0577 325.5701,88.1197 323.5961,90.3237 C321.6191,92.5277 318.8881,93.6277 315.4041,93.6277 C313.2501,93.6277 311.3421,93.1217 309.6721,92.1117 C308.0021,91.1017 306.7151,89.6527 305.8071,87.7647 C304.8991,85.8767 304.4431,83.6657 304.4431,81.1327 C304.4431,77.2097 305.4241,74.1537 307.3881,71.9657 C309.3501,69.7767 312.0731,68.6827 315.5571,68.6827 C318.9251,68.6827 321.6001,69.8017 323.5831,72.0417 C325.5681,74.2817 326.5591,77.3117 326.5591,81.1327" id="Fill-19" fill="#333333" mask="url(#mask-2)"></path>
                <path d="M349.4203,93.1898 L349.4203,77.6188 C349.4203,75.6558 348.9743,74.1938 348.0803,73.2258 C347.1883,72.2578 345.7893,71.7758 343.8843,71.7758 C341.3673,71.7758 339.5243,72.4558 338.3513,73.8188 C337.1793,75.1808 336.5913,77.4268 336.5913,80.5578 L336.5913,93.1888 L332.9453,93.1888 L332.9453,69.1198 L335.9103,69.1198 L336.5023,72.4158 L336.6773,72.4158 C337.4233,71.2308 338.4703,70.3098 339.8163,69.6598 C341.1653,69.0088 342.6663,68.6838 344.3193,68.6838 C347.2193,68.6838 349.4003,69.3818 350.8623,70.7818 C352.3263,72.1798 353.0593,74.4168 353.0593,77.4908 L353.0593,93.1928 L349.4203,93.1898 Z" id="Fill-20" fill="#333333" mask="url(#mask-2)"></path>
                <path d="M376.0815,86.6224 C376.0815,88.8634 375.2465,90.5914 373.5755,91.8064 C371.9085,93.0224 369.5635,93.6274 366.5485,93.6274 C363.3535,93.6274 360.8645,93.1224 359.0795,92.1124 L359.0795,88.7284 C360.2355,89.3154 361.4775,89.7764 362.8025,90.1114 C364.1265,90.4494 365.4045,90.6174 366.6335,90.6174 C368.5385,90.6174 370.0015,90.3144 371.0275,89.7064 C372.0525,89.0974 372.5655,88.1724 372.5655,86.9294 C372.5655,85.9904 372.1585,85.1894 371.3475,84.5214 C370.5355,83.8554 368.9485,83.0684 366.5935,82.1634 C364.3525,81.3284 362.7605,80.5994 361.8155,79.9774 C360.8725,79.3564 360.1685,78.6494 359.7075,77.8584 C359.2465,77.0704 359.0165,76.1244 359.0165,75.0254 C359.0165,73.0634 359.8135,71.5174 361.4095,70.3814 C363.0055,69.2464 365.1945,68.6774 367.9765,68.6774 C370.5675,68.6774 373.1015,69.2034 375.5745,70.2584 L374.2785,73.2224 C371.8645,72.2264 369.6765,71.7294 367.7125,71.7294 C365.9845,71.7294 364.6815,71.9994 363.8035,72.5424 C362.9265,73.0834 362.4875,73.8304 362.4875,74.7824 C362.4875,75.4274 362.6525,75.9744 362.9815,76.4284 C363.3095,76.8844 363.8415,77.3154 364.5735,77.7264 C365.3065,78.1374 366.7115,78.7294 368.7905,79.5044 C371.6445,80.5424 373.5735,81.5904 374.5765,82.6454 C375.5815,83.7024 376.0815,85.0264 376.0815,86.6224" id="Fill-21" fill="#333333" mask="url(#mask-2)"></path>
                <polygon id="Fill-22" fill="#F06924" mask="url(#mask-2)" points="249.2895 45.9749 249.2895 32.5739 307.8485 0.1899"></polygon>
                <polygon id="Fill-23" fill="#333333" mask="url(#mask-2)" points="249.2895 32.5741 289.4235 37.2471 307.8485 0.1901"></polygon>
                <polygon id="Fill-24" fill="#333333" mask="url(#mask-2)" points="244.0863 31.8983 306.1743 0.1903 212.7303 28.9683 237.5903 31.2913 247.6173 45.9753"></polygon>
                <path d="M170.5541,61.0658 C171.3461,59.8548 172.2801,58.7518 173.2711,57.7018 L173.4151,57.8438 C172.4111,58.8628 171.4541,59.9438 170.6471,61.1268 L170.5541,61.0658 Z" id="Fill-25" fill="#333333" mask="url(#mask-2)"></path>
                <path d="M176.4814,54.7835 C177.6064,53.8935 178.8174,53.0695 180.0624,52.3395 L180.2564,52.6815 C179.0034,53.3805 177.8094,54.1555 176.6574,55.0245 L176.4814,54.7835 Z" id="Fill-26" fill="#333333" mask="url(#mask-2)"></path>
                <path d="M183.9784,50.4046 C185.3074,49.8716 186.6834,49.4216 188.1024,49.0406 L188.2364,49.5986 C186.8654,49.9456 185.4974,50.3606 184.1424,50.8646 L183.9784,50.4046 Z" id="Fill-27" fill="#333333" mask="url(#mask-2)"></path>
                <path d="M192.4018,48.2459 C193.8318,48.0909 195.2858,48.0139 196.7568,48.0009 L196.7488,48.7199 C195.3308,48.7069 193.8998,48.7559 192.4518,48.8899 L192.4018,48.2459 Z" id="Fill-28" fill="#333333" mask="url(#mask-2)"></path>
                <path d="M201.1283,48.2601 C202.5543,48.4341 203.9893,48.6711 205.4333,48.9661 L205.2523,49.8061 C203.8633,49.4991 202.4523,49.2401 201.0143,49.0411 L201.1283,48.2601 Z" id="Fill-29" fill="#333333" mask="url(#mask-2)"></path>
                <polygon id="Fill-30" fill="#333333" mask="url(#mask-2)" points="209.6674 49.8563 213.9304 50.6043 213.7604 51.6303 209.4844 50.7873"></polygon>
                <path d="M218.2016,51.2035 C219.6406,51.3725 221.0766,51.5145 222.5026,51.6225 L222.4216,52.6995 C220.9616,52.5875 219.5136,52.4435 218.0826,52.2725 L218.2016,51.2035 Z" id="Fill-31" fill="#333333" mask="url(#mask-2)"></path>
                <path d="M226.8041,51.8426 C228.2571,51.8806 229.7001,51.8846 231.1261,51.8376 L231.1781,52.6876 C229.7101,52.7926 228.2521,52.8446 226.8041,52.8636 L226.8041,51.8426 Z" id="Fill-32" fill="#333333" mask="url(#mask-2)"></path>
                <path d="M235.4115,51.4847 C236.8545,51.2867 238.2425,51.0247 239.6325,50.6367 L239.7785,51.1237 C238.3905,51.5727 236.9425,51.9027 235.5255,52.1517 L235.4115,51.4847 Z" id="Fill-33" fill="#333333" mask="url(#mask-2)"></path>
                <path d="M243.557,48.9539 C243.785,48.7619 243.992,48.5629 244.151,48.3329 L244.243,48.3839 C244.085,48.6549 243.887,48.8749 243.678,49.0779 L243.557,48.9539 Z" id="Fill-34" fill="#333333" mask="url(#mask-2)"></path>
            </g>
        </g>
    </g>
</svg>